<mxfile host="app.diagrams.net" agent="Mozilla/5.0 (Windows NT 10.0; Win64; x64) AppleWebKit/537.36 (KHTML, like Gecko) Chrome/131.0.0.0 Safari/537.36" version="25.0.1">
  <diagram name="Page-1" id="-H_mtQnk-PTXWXPvYvuk">
    <mxGraphModel dx="1302" dy="1509" grid="1" gridSize="10" guides="1" tooltips="1" connect="1" arrows="1" fold="1" page="1" pageScale="1" pageWidth="1169" pageHeight="827" math="0" shadow="0">
      <root>
        <mxCell id="0" />
        <mxCell id="1" parent="0" />
        <mxCell id="uLa2FIIkXBWoVXCnlkZr-13" value="" style="rounded=0;whiteSpace=wrap;html=1;strokeColor=#6c8ebf;dashed=1;dashPattern=8 8;fillColor=#dae8fc;" parent="1" vertex="1">
          <mxGeometry x="610" y="170" width="250" height="140" as="geometry" />
        </mxCell>
        <mxCell id="uLa2FIIkXBWoVXCnlkZr-12" value="" style="rounded=0;whiteSpace=wrap;html=1;dashed=1;dashPattern=8 8;strokeWidth=1;perimeterSpacing=7;shadow=0;glass=0;fillColor=#dae8fc;strokeColor=#6c8ebf;" parent="1" vertex="1">
          <mxGeometry x="610" y="330" width="250" height="140" as="geometry" />
        </mxCell>
        <mxCell id="zA23MoTUsTF4_91t8viU-2" value="&lt;font style=&quot;font-size: 10px;&quot;&gt;MongoDB&lt;/font&gt;" style="shape=cylinder3;whiteSpace=wrap;html=1;boundedLbl=1;backgroundOutline=1;size=15;" parent="1" vertex="1">
          <mxGeometry x="630" y="200" width="60" height="80" as="geometry" />
        </mxCell>
        <mxCell id="uLa2FIIkXBWoVXCnlkZr-23" style="edgeStyle=orthogonalEdgeStyle;rounded=0;orthogonalLoop=1;jettySize=auto;html=1;entryX=0.5;entryY=1;entryDx=0;entryDy=0;startArrow=blockThin;startFill=1;endArrow=blockThin;endFill=1;" parent="1" source="zA23MoTUsTF4_91t8viU-3" target="uLa2FIIkXBWoVXCnlkZr-22" edge="1">
          <mxGeometry relative="1" as="geometry" />
        </mxCell>
        <mxCell id="zA23MoTUsTF4_91t8viU-3" value="pymongo-api" style="rounded=1;whiteSpace=wrap;html=1;" parent="1" vertex="1">
          <mxGeometry x="359" y="370" width="120" height="60" as="geometry" />
        </mxCell>
        <mxCell id="uLa2FIIkXBWoVXCnlkZr-1" value="MongoDB" style="shape=cylinder3;whiteSpace=wrap;html=1;boundedLbl=1;backgroundOutline=1;size=15;" parent="1" vertex="1">
          <mxGeometry x="630" y="360" width="60" height="80" as="geometry" />
        </mxCell>
        <mxCell id="uLa2FIIkXBWoVXCnlkZr-5" style="edgeStyle=orthogonalEdgeStyle;rounded=0;orthogonalLoop=1;jettySize=auto;html=1;exitX=1;exitY=0.25;exitDx=0;exitDy=0;startArrow=blockThin;startFill=1;endArrow=blockThin;endFill=1;" parent="1" source="wpZsv-CSzd4Vx7WV7xcM-5" edge="1">
          <mxGeometry relative="1" as="geometry">
            <mxPoint x="556" y="300" as="sourcePoint" />
            <mxPoint x="613.5" y="240" as="targetPoint" />
            <Array as="points">
              <mxPoint x="590" y="315" />
              <mxPoint x="590" y="240" />
            </Array>
          </mxGeometry>
        </mxCell>
        <mxCell id="uLa2FIIkXBWoVXCnlkZr-7" style="edgeStyle=orthogonalEdgeStyle;rounded=0;orthogonalLoop=1;jettySize=auto;html=1;exitX=1;exitY=0.75;exitDx=0;exitDy=0;startArrow=blockThin;startFill=1;endArrow=blockThin;endFill=1;" parent="1" source="wpZsv-CSzd4Vx7WV7xcM-5" edge="1">
          <mxGeometry relative="1" as="geometry">
            <mxPoint x="575" y="400" as="sourcePoint" />
            <mxPoint x="610" y="400" as="targetPoint" />
            <Array as="points">
              <mxPoint x="590" y="345" />
              <mxPoint x="590" y="400" />
            </Array>
          </mxGeometry>
        </mxCell>
        <mxCell id="uLa2FIIkXBWoVXCnlkZr-8" value="&lt;font style=&quot;font-size: 10px;&quot;&gt;MongoDB&lt;/font&gt;" style="shape=cylinder3;whiteSpace=wrap;html=1;boundedLbl=1;backgroundOutline=1;size=15;" parent="1" vertex="1">
          <mxGeometry x="700" y="200" width="60" height="80" as="geometry" />
        </mxCell>
        <mxCell id="uLa2FIIkXBWoVXCnlkZr-9" value="&lt;font style=&quot;font-size: 10px;&quot;&gt;MongoDB&lt;/font&gt;" style="shape=cylinder3;whiteSpace=wrap;html=1;boundedLbl=1;backgroundOutline=1;size=15;" parent="1" vertex="1">
          <mxGeometry x="770" y="200" width="60" height="80" as="geometry" />
        </mxCell>
        <mxCell id="uLa2FIIkXBWoVXCnlkZr-10" value="MongoDB" style="shape=cylinder3;whiteSpace=wrap;html=1;boundedLbl=1;backgroundOutline=1;size=15;" parent="1" vertex="1">
          <mxGeometry x="700" y="360" width="60" height="80" as="geometry" />
        </mxCell>
        <mxCell id="uLa2FIIkXBWoVXCnlkZr-11" value="MongoDB" style="shape=cylinder3;whiteSpace=wrap;html=1;boundedLbl=1;backgroundOutline=1;size=15;" parent="1" vertex="1">
          <mxGeometry x="770" y="360" width="60" height="80" as="geometry" />
        </mxCell>
        <mxCell id="uLa2FIIkXBWoVXCnlkZr-14" value="master" style="text;html=1;align=center;verticalAlign=middle;whiteSpace=wrap;rounded=0;" parent="1" vertex="1">
          <mxGeometry x="635" y="200" width="50" height="30" as="geometry" />
        </mxCell>
        <mxCell id="uLa2FIIkXBWoVXCnlkZr-15" value="master" style="text;html=1;align=center;verticalAlign=middle;whiteSpace=wrap;rounded=0;" parent="1" vertex="1">
          <mxGeometry x="635" y="360" width="50" height="30" as="geometry" />
        </mxCell>
        <mxCell id="uLa2FIIkXBWoVXCnlkZr-16" value="replica" style="text;html=1;align=center;verticalAlign=middle;whiteSpace=wrap;rounded=0;" parent="1" vertex="1">
          <mxGeometry x="700" y="200" width="60" height="30" as="geometry" />
        </mxCell>
        <mxCell id="uLa2FIIkXBWoVXCnlkZr-17" value="replica" style="text;html=1;align=center;verticalAlign=middle;whiteSpace=wrap;rounded=0;" parent="1" vertex="1">
          <mxGeometry x="770" y="200" width="60" height="30" as="geometry" />
        </mxCell>
        <mxCell id="uLa2FIIkXBWoVXCnlkZr-18" value="replica" style="text;html=1;align=center;verticalAlign=middle;whiteSpace=wrap;rounded=0;" parent="1" vertex="1">
          <mxGeometry x="700" y="360" width="60" height="30" as="geometry" />
        </mxCell>
        <mxCell id="uLa2FIIkXBWoVXCnlkZr-19" value="replica" style="text;html=1;align=center;verticalAlign=middle;whiteSpace=wrap;rounded=0;" parent="1" vertex="1">
          <mxGeometry x="770" y="360" width="60" height="30" as="geometry" />
        </mxCell>
        <mxCell id="uLa2FIIkXBWoVXCnlkZr-20" value="shard-1" style="text;html=1;align=center;verticalAlign=middle;whiteSpace=wrap;rounded=0;" parent="1" vertex="1">
          <mxGeometry x="610" y="170" width="60" height="30" as="geometry" />
        </mxCell>
        <mxCell id="uLa2FIIkXBWoVXCnlkZr-21" value="shard-2" style="text;html=1;align=center;verticalAlign=middle;whiteSpace=wrap;rounded=0;" parent="1" vertex="1">
          <mxGeometry x="610" y="330" width="60" height="30" as="geometry" />
        </mxCell>
        <mxCell id="uLa2FIIkXBWoVXCnlkZr-22" value="cash (redis)" style="whiteSpace=wrap;html=1;aspect=fixed;fillColor=#f8cecc;strokeColor=#b85450;direction=west;" parent="1" vertex="1">
          <mxGeometry x="386.5" y="470" width="65" height="65" as="geometry" />
        </mxCell>
        <mxCell id="wpZsv-CSzd4Vx7WV7xcM-2" value="pymongo-api" style="rounded=1;whiteSpace=wrap;html=1;" parent="1" vertex="1">
          <mxGeometry x="358" y="210" width="120" height="60" as="geometry" />
        </mxCell>
        <mxCell id="wpZsv-CSzd4Vx7WV7xcM-3" value="cash (redis)" style="whiteSpace=wrap;html=1;aspect=fixed;fillColor=#f8cecc;strokeColor=#b85450;direction=west;" parent="1" vertex="1">
          <mxGeometry x="385.5" y="105" width="65" height="65" as="geometry" />
        </mxCell>
        <mxCell id="wpZsv-CSzd4Vx7WV7xcM-4" style="edgeStyle=orthogonalEdgeStyle;rounded=0;orthogonalLoop=1;jettySize=auto;html=1;startArrow=blockThin;startFill=1;endArrow=blockThin;endFill=1;exitX=0.5;exitY=0;exitDx=0;exitDy=0;" parent="1" source="wpZsv-CSzd4Vx7WV7xcM-3" edge="1">
          <mxGeometry relative="1" as="geometry">
            <mxPoint x="428" y="440" as="sourcePoint" />
            <mxPoint x="418" y="210" as="targetPoint" />
          </mxGeometry>
        </mxCell>
        <mxCell id="wpZsv-CSzd4Vx7WV7xcM-7" style="edgeStyle=orthogonalEdgeStyle;rounded=0;orthogonalLoop=1;jettySize=auto;html=1;entryX=1;entryY=0.5;entryDx=0;entryDy=0;endArrow=blockThin;endFill=1;startArrow=blockThin;startFill=1;exitX=0;exitY=0.5;exitDx=0;exitDy=0;" parent="1" edge="1">
          <mxGeometry relative="1" as="geometry">
            <mxPoint x="531" y="330" as="sourcePoint" />
            <mxPoint x="479" y="240" as="targetPoint" />
            <Array as="points">
              <mxPoint x="501" y="330" />
              <mxPoint x="501" y="240" />
            </Array>
          </mxGeometry>
        </mxCell>
        <mxCell id="wpZsv-CSzd4Vx7WV7xcM-12" style="edgeStyle=orthogonalEdgeStyle;rounded=0;orthogonalLoop=1;jettySize=auto;html=1;startArrow=blockThin;startFill=1;endArrow=block;endFill=1;" parent="1" source="wpZsv-CSzd4Vx7WV7xcM-5" target="wpZsv-CSzd4Vx7WV7xcM-11" edge="1">
          <mxGeometry relative="1" as="geometry" />
        </mxCell>
        <mxCell id="wpZsv-CSzd4Vx7WV7xcM-5" value="роутер" style="rounded=1;whiteSpace=wrap;html=1;" parent="1" vertex="1">
          <mxGeometry x="530" y="300" width="45" height="60" as="geometry" />
        </mxCell>
        <mxCell id="wpZsv-CSzd4Vx7WV7xcM-8" style="edgeStyle=orthogonalEdgeStyle;rounded=0;orthogonalLoop=1;jettySize=auto;html=1;entryX=1;entryY=0.5;entryDx=0;entryDy=0;endArrow=blockThin;endFill=1;startArrow=blockThin;startFill=1;exitX=0;exitY=0.5;exitDx=0;exitDy=0;" parent="1" edge="1">
          <mxGeometry relative="1" as="geometry">
            <mxPoint x="531" y="330" as="sourcePoint" />
            <mxPoint x="480" y="400" as="targetPoint" />
            <Array as="points">
              <mxPoint x="501" y="330" />
              <mxPoint x="501" y="400" />
            </Array>
          </mxGeometry>
        </mxCell>
        <mxCell id="wpZsv-CSzd4Vx7WV7xcM-11" value="configSrv" style="whiteSpace=wrap;html=1;aspect=fixed;fillColor=#f8cecc;strokeColor=#b85450;direction=west;" parent="1" vertex="1">
          <mxGeometry x="520" y="130" width="65" height="65" as="geometry" />
        </mxCell>
        <mxCell id="wpZsv-CSzd4Vx7WV7xcM-15" style="edgeStyle=orthogonalEdgeStyle;rounded=0;orthogonalLoop=1;jettySize=auto;html=1;entryX=0;entryY=0.5;entryDx=0;entryDy=0;" parent="1" source="wpZsv-CSzd4Vx7WV7xcM-13" target="zA23MoTUsTF4_91t8viU-3" edge="1">
          <mxGeometry relative="1" as="geometry" />
        </mxCell>
        <mxCell id="wpZsv-CSzd4Vx7WV7xcM-13" value="APISIX GateWay" style="rounded=1;whiteSpace=wrap;html=1;" parent="1" vertex="1">
          <mxGeometry x="160" y="260" width="120" height="110" as="geometry" />
        </mxCell>
        <mxCell id="wpZsv-CSzd4Vx7WV7xcM-14" style="edgeStyle=orthogonalEdgeStyle;rounded=0;orthogonalLoop=1;jettySize=auto;html=1;entryX=0.032;entryY=0.48;entryDx=0;entryDy=0;entryPerimeter=0;" parent="1" source="wpZsv-CSzd4Vx7WV7xcM-13" target="wpZsv-CSzd4Vx7WV7xcM-2" edge="1">
          <mxGeometry relative="1" as="geometry" />
        </mxCell>
        <mxCell id="wpZsv-CSzd4Vx7WV7xcM-18" style="edgeStyle=orthogonalEdgeStyle;rounded=0;orthogonalLoop=1;jettySize=auto;html=1;entryX=0.5;entryY=0;entryDx=0;entryDy=0;fillColor=#d5e8d4;strokeColor=#82b366;" parent="1" source="wpZsv-CSzd4Vx7WV7xcM-16" target="wpZsv-CSzd4Vx7WV7xcM-17" edge="1">
          <mxGeometry relative="1" as="geometry" />
        </mxCell>
        <mxCell id="wpZsv-CSzd4Vx7WV7xcM-16" value="consul_kv" style="rounded=1;whiteSpace=wrap;html=1;fillColor=#d5e8d4;strokeColor=#82b366;" parent="1" vertex="1">
          <mxGeometry x="170" y="370" width="100" height="30" as="geometry" />
        </mxCell>
        <mxCell id="wpZsv-CSzd4Vx7WV7xcM-21" style="edgeStyle=orthogonalEdgeStyle;rounded=0;orthogonalLoop=1;jettySize=auto;html=1;entryX=0.25;entryY=0;entryDx=0;entryDy=0;fillColor=#d5e8d4;strokeColor=#82b366;startArrow=blockThin;startFill=1;endArrow=none;endFill=0;" parent="1" source="wpZsv-CSzd4Vx7WV7xcM-17" target="wpZsv-CSzd4Vx7WV7xcM-2" edge="1">
          <mxGeometry relative="1" as="geometry">
            <Array as="points">
              <mxPoint x="110" y="520" />
              <mxPoint x="110" y="190" />
              <mxPoint x="388" y="190" />
            </Array>
          </mxGeometry>
        </mxCell>
        <mxCell id="wpZsv-CSzd4Vx7WV7xcM-17" value="Consul" style="rounded=1;whiteSpace=wrap;html=1;fillColor=#d5e8d4;strokeColor=#82b366;" parent="1" vertex="1">
          <mxGeometry x="160" y="490" width="120" height="60" as="geometry" />
        </mxCell>
        <mxCell id="wpZsv-CSzd4Vx7WV7xcM-20" style="edgeStyle=orthogonalEdgeStyle;rounded=0;orthogonalLoop=1;jettySize=auto;html=1;entryX=0.107;entryY=1.013;entryDx=0;entryDy=0;entryPerimeter=0;fillColor=#d5e8d4;strokeColor=#82b366;startArrow=blockThin;startFill=1;endArrow=none;endFill=0;" parent="1" source="wpZsv-CSzd4Vx7WV7xcM-17" target="zA23MoTUsTF4_91t8viU-3" edge="1">
          <mxGeometry relative="1" as="geometry" />
        </mxCell>
        <mxCell id="wpZsv-CSzd4Vx7WV7xcM-22" value="сайт&amp;nbsp;&lt;div&gt;React/Nginx&lt;/div&gt;" style="rounded=1;whiteSpace=wrap;html=1;fillColor=#fff2cc;strokeColor=#d6b656;" parent="1" vertex="1">
          <mxGeometry x="160" y="-50" width="120" height="60" as="geometry" />
        </mxCell>
        <mxCell id="wpZsv-CSzd4Vx7WV7xcM-23" style="edgeStyle=orthogonalEdgeStyle;rounded=0;orthogonalLoop=1;jettySize=auto;html=1;entryX=0.5;entryY=0;entryDx=0;entryDy=0;" parent="1" source="wpZsv-CSzd4Vx7WV7xcM-22" target="wpZsv-CSzd4Vx7WV7xcM-13" edge="1">
          <mxGeometry relative="1" as="geometry">
            <mxPoint x="130.00000000000023" y="80" as="targetPoint" />
          </mxGeometry>
        </mxCell>
        <mxCell id="hHyxLUBkIhUMsurYBcOV-16" style="edgeStyle=orthogonalEdgeStyle;rounded=0;orthogonalLoop=1;jettySize=auto;html=1;entryX=1;entryY=0.5;entryDx=0;entryDy=0;startArrow=blockThin;startFill=1;" edge="1" parent="1" source="hHyxLUBkIhUMsurYBcOV-3" target="hHyxLUBkIhUMsurYBcOV-15">
          <mxGeometry relative="1" as="geometry" />
        </mxCell>
        <mxCell id="hHyxLUBkIhUMsurYBcOV-3" value="CDN&lt;br&gt;регион-2" style="ellipse;shape=cloud;whiteSpace=wrap;html=1;fillColor=#e3c800;fontColor=#000000;strokeColor=#B09500;" vertex="1" parent="1">
          <mxGeometry x="450.5" y="-30" width="120" height="80" as="geometry" />
        </mxCell>
        <mxCell id="hHyxLUBkIhUMsurYBcOV-12" style="edgeStyle=orthogonalEdgeStyle;rounded=0;orthogonalLoop=1;jettySize=auto;html=1;entryX=0.07;entryY=0.4;entryDx=0;entryDy=0;entryPerimeter=0;" edge="1" parent="1" target="hHyxLUBkIhUMsurYBcOV-3">
          <mxGeometry relative="1" as="geometry">
            <mxPoint x="280" y="-27.04" as="sourcePoint" />
            <mxPoint x="419.72" y="10.000000000000192" as="targetPoint" />
          </mxGeometry>
        </mxCell>
        <mxCell id="hHyxLUBkIhUMsurYBcOV-14" style="edgeStyle=orthogonalEdgeStyle;rounded=0;orthogonalLoop=1;jettySize=auto;html=1;entryX=0.5;entryY=0;entryDx=0;entryDy=0;" edge="1" parent="1" target="wpZsv-CSzd4Vx7WV7xcM-22">
          <mxGeometry relative="1" as="geometry">
            <mxPoint x="430.5" y="-110" as="sourcePoint" />
          </mxGeometry>
        </mxCell>
        <mxCell id="hHyxLUBkIhUMsurYBcOV-15" value="cash" style="whiteSpace=wrap;html=1;aspect=fixed;fillColor=#f8cecc;strokeColor=#b85450;direction=west;" vertex="1" parent="1">
          <mxGeometry x="630" y="-22.5" width="65" height="65" as="geometry" />
        </mxCell>
        <mxCell id="hHyxLUBkIhUMsurYBcOV-18" value="user" style="shape=umlActor;verticalLabelPosition=bottom;verticalAlign=top;html=1;outlineConnect=0;" vertex="1" parent="1">
          <mxGeometry x="440" y="-140" width="30" height="60" as="geometry" />
        </mxCell>
      </root>
    </mxGraphModel>
  </diagram>
</mxfile>
